<svg width="162" height="35" viewBox="0 0 162 35" fill="none" xmlns="http://www.w3.org/2000/svg">
<path fill-rule="evenodd" clip-rule="evenodd" d="M5.96872 8.62843C8.70907 5.12621 13.0973 2.85726 18.0432 2.85726C23.0182 2.85726 27.4287 5.15298 30.1658 8.69033C30.0493 8.80415 29.9432 8.92211 29.8471 9.03992C29.3458 9.6568 28.9686 10.4513 28.6664 11.2583C28.0578 12.881 27.5936 15.0008 27.1638 16.9858L27.1256 17.1642C26.6968 19.1456 26.2982 20.9882 25.8162 22.3561C25.5997 22.9706 25.3944 23.4051 25.2123 23.6834C25.0223 23.4029 24.8068 22.9631 24.5786 22.3398C24.0632 20.9326 23.6296 19.0187 23.1701 16.975L23.1552 16.908V16.908C22.7135 14.945 22.2451 12.8622 21.661 11.2679C21.3675 10.4671 21.0075 9.68042 20.5366 9.06927C20.0744 8.46951 19.3051 7.79263 18.1799 7.79263C17.0618 7.79263 16.289 8.46216 15.8201 9.0552C15.3401 9.66242 14.9659 10.4458 14.6576 11.247C14.0367 12.8606 13.5291 14.9712 13.0567 16.9589L13.008 17.1642C12.5402 19.1333 12.1029 20.9741 11.6065 22.3446C11.4171 22.868 11.2383 23.2662 11.0764 23.5507C10.9182 23.2675 10.7439 22.872 10.5595 22.353C10.0834 21.0117 9.66619 19.2224 9.21816 17.3006L9.13972 16.9642C8.67552 14.9753 8.17189 12.8609 7.5422 11.2423C7.22935 10.4381 6.84668 9.65076 6.3515 9.04071C6.23936 8.90264 6.11194 8.76246 5.96872 8.62843ZM4.3102 11.3176C4.44071 11.5624 4.57879 11.8659 4.72154 12.2329C5.26659 13.6339 5.72833 15.5456 6.20382 17.5829L6.29638 17.9798C6.72929 19.8387 7.17964 21.7723 7.7101 23.2662C7.99223 24.0608 8.33296 24.839 8.77112 25.4438C9.1855 26.0158 9.9289 26.7546 11.072 26.7546C12.2118 26.7546 12.9569 26.0194 13.3741 25.45C13.8161 24.8465 14.1623 24.0692 14.4502 23.2741C15.0019 21.7507 15.4717 19.7717 15.9214 17.8778V17.8777L15.9901 17.5882C16.4746 15.5498 16.9409 13.6343 17.482 12.2281C17.7326 11.5767 17.9673 11.1229 18.1716 10.8413C18.3652 11.1204 18.5864 11.5671 18.821 12.2073C19.3365 13.6145 19.7697 15.5285 20.2293 17.5721L20.2444 17.6391C20.6859 19.6021 21.1544 21.6849 21.7384 23.279C22.0319 24.0802 22.3919 24.8668 22.8629 25.4778C23.3251 26.0778 24.0943 26.7546 25.2193 26.7546C26.3503 26.7546 27.1168 26.0716 27.5735 25.4663C28.0373 24.8522 28.3861 24.063 28.6678 23.2631C29.2093 21.7267 29.6398 19.7332 30.0503 17.8367V17.8367L30.1091 17.5614C30.5512 15.5202 30.9754 13.6137 31.4993 12.217C31.6127 11.9131 31.7245 11.654 31.8311 11.4364C32.6338 13.1844 33.079 15.1146 33.079 17.1436C33.079 25.0336 26.3475 31.4301 18.0432 31.4301C9.73906 31.4301 3.0072 25.0336 3.0072 17.1436C3.0072 15.0686 3.47282 13.0968 4.3102 11.3176ZM18.0432 0C8.07823 0 0 7.67545 0 17.1436C0 26.6117 8.07823 34.2871 18.0432 34.2871C28.0084 34.2871 36.0862 26.6117 36.0862 17.1436C36.0862 7.67545 28.0084 0 18.0432 0ZM18.387 10.6021C18.387 10.6025 18.3835 10.6052 18.3764 10.609C18.3834 10.6037 18.387 10.6018 18.387 10.6021ZM17.9713 10.6041C17.9643 10.6 17.9609 10.5972 17.9609 10.5969C17.9609 10.5965 17.9644 10.5985 17.9713 10.6041ZM24.9907 23.9546C24.9907 23.9546 24.9939 23.9515 25.0004 23.9475C24.9939 23.9528 24.9907 23.955 24.9907 23.9546ZM25.4279 23.9431C25.4349 23.9471 25.4386 23.9497 25.4386 23.9502C25.4386 23.9506 25.4349 23.9484 25.4279 23.9431ZM10.7638 23.9803C10.7638 23.9798 10.7681 23.9758 10.7768 23.9701C10.7682 23.9776 10.7638 23.9807 10.7638 23.9803ZM11.3728 23.9727C11.3814 23.9785 11.3857 23.9825 11.3857 23.9829C11.3857 23.9834 11.3813 23.9807 11.3728 23.9727Z" fill="#81818B"/>
<path d="M48.6758 26.9007L44.3004 12.6801H48.1329L50.728 22.9154L53.7452 12.6801H58.0302L61.0479 22.9154L63.6729 12.6801H67.5054L63.0996 26.9007H59.0865L55.8877 16.2639L52.6894 26.9007H48.6758Z" fill="#81818B"/>
<path d="M73.1287 27.2449C71.8414 27.2449 70.7851 27.0533 69.9604 26.6711C69.1361 26.2698 68.5224 25.7442 68.1197 25.0943C67.7176 24.4444 67.5165 23.7277 67.5165 22.9442C67.5165 21.6254 68.0593 20.5549 69.1456 19.733C70.2318 18.9112 71.8619 18.5002 74.0344 18.5002H77.8364V18.1562C77.8364 17.1813 77.5445 16.4646 76.9612 16.0059C76.378 15.5471 75.6535 15.3178 74.7888 15.3178C74.0039 15.3178 73.3198 15.4993 72.7366 15.8625C72.1533 16.2066 71.791 16.7226 71.6503 17.4107H67.8782C67.979 16.3786 68.3413 15.4802 68.9644 14.7157C69.6086 13.9512 70.4334 13.3682 71.4388 12.9668C72.4452 12.5463 73.5713 12.3361 74.8187 12.3361C76.9513 12.3361 78.6307 12.8425 79.8582 13.8556C81.0851 14.8686 81.6988 16.3022 81.6988 18.1562V26.9007H78.4092L78.0475 24.6072C77.6049 25.3717 76.9812 26.0022 76.1769 26.4995C75.392 26.9963 74.3761 27.2449 73.1287 27.2449ZM74.0039 24.3776C75.1106 24.3776 75.9653 24.0334 76.5685 23.3455C77.1922 22.6575 77.5849 21.8067 77.7461 20.7938H74.4565C73.4306 20.7938 72.6967 20.9754 72.2536 21.3386C71.8115 21.6824 71.59 22.1129 71.59 22.6287C71.59 23.1831 71.8115 23.6131 72.2536 23.9188C72.6967 24.2245 73.2794 24.3776 74.0039 24.3776Z" fill="#81818B"/>
<path d="M87.7788 26.9007L82.2874 12.6801H86.3304L90.1324 23.4317L93.9345 12.6801H97.978L92.4561 26.9007H87.7788Z" fill="#81818B"/>
<path d="M105.742 27.2449C104.234 27.2449 102.896 26.9388 101.729 26.3273C100.563 25.7155 99.6474 24.8554 98.9833 23.7467C98.3192 22.6385 97.9879 21.3577 97.9879 19.905C97.9879 18.4333 98.3097 17.124 98.9529 15.9772C99.617 14.8304 100.522 13.9416 101.669 13.3108C102.835 12.661 104.203 12.3361 105.773 12.3361C107.241 12.3361 108.539 12.6419 109.665 13.2535C110.792 13.8651 111.667 14.7061 112.29 15.7765C112.934 16.8277 113.256 18.0032 113.256 19.303C113.256 19.5132 113.246 19.733 113.226 19.9624C113.226 20.1918 113.216 20.4307 113.196 20.6791H101.82C101.9 21.7877 102.303 22.6575 103.027 23.2884C103.771 23.9188 104.666 24.2343 105.713 24.2343C106.497 24.2343 107.151 24.0719 107.674 23.7467C108.216 23.403 108.619 22.9632 108.881 22.4279H112.803C112.522 23.3264 112.049 24.1485 111.385 24.8939C110.741 25.6199 109.937 26.1933 108.971 26.614C108.026 27.0343 106.949 27.2449 105.742 27.2449ZM105.773 15.3178C104.828 15.3178 103.992 15.5758 103.268 16.0919C102.544 16.5888 102.081 17.3534 101.88 18.3855H109.333C109.273 17.4489 108.911 16.7035 108.247 16.1492C107.583 15.5949 106.759 15.3178 105.773 15.3178Z" fill="#81818B"/>
<path d="M115.298 26.9007V6.25781H119.16V26.9007H115.298Z" fill="#81818B"/>
<path d="M129.171 27.2449C127.663 27.2449 126.325 26.9388 125.158 26.3273C123.992 25.7155 123.077 24.8554 122.413 23.7467C121.748 22.6385 121.417 21.3577 121.417 19.905C121.417 18.4333 121.739 17.124 122.382 15.9772C123.046 14.8304 123.951 13.9416 125.098 13.3108C126.265 12.661 127.633 12.3361 129.202 12.3361C130.67 12.3361 131.968 12.6419 133.095 13.2535C134.221 13.8651 135.097 14.7061 135.72 15.7765C136.363 16.8277 136.686 18.0032 136.686 19.303C136.686 19.5132 136.675 19.733 136.655 19.9624C136.655 20.1918 136.645 20.4307 136.625 20.6791H125.249C125.329 21.7877 125.732 22.6575 126.456 23.2884C127.2 23.9188 128.096 24.2343 129.142 24.2343C129.926 24.2343 130.58 24.0719 131.103 23.7467C131.646 23.403 132.048 22.9632 132.31 22.4279H136.233C135.951 23.3264 135.478 24.1485 134.815 24.8939C134.17 25.6199 133.366 26.1933 132.4 26.614C131.455 27.0343 130.379 27.2449 129.171 27.2449ZM129.202 15.3178C128.257 15.3178 127.422 15.5758 126.697 16.0919C125.973 16.5888 125.511 17.3534 125.309 18.3855H132.762C132.702 17.4489 132.34 16.7035 131.676 16.1492C131.012 15.5949 130.188 15.3178 129.202 15.3178Z" fill="#81818B"/>
<path d="M144.913 27.2449C143.585 27.2449 142.418 27.044 141.413 26.6428C140.406 26.222 139.602 25.6487 138.998 24.9222C138.395 24.1962 138.033 23.3552 137.912 22.3996H141.804C141.925 22.9535 142.248 23.4317 142.77 23.833C143.313 24.2152 144.007 24.4064 144.852 24.4064C145.697 24.4064 146.311 24.244 146.693 23.9188C147.095 23.5941 147.296 23.2212 147.296 22.8008C147.296 22.189 147.015 21.778 146.452 21.5678C145.888 21.3386 145.104 21.1188 144.098 20.9085C143.455 20.7747 142.801 20.6123 142.137 20.4211C141.473 20.23 140.859 19.991 140.296 19.7044C139.753 19.3985 139.31 19.0163 138.968 18.5575C138.626 18.0797 138.455 17.4967 138.455 16.8086C138.455 15.5471 138.978 14.4864 140.025 13.6262C141.09 12.7661 142.579 12.3361 144.49 12.3361C146.261 12.3361 147.669 12.7279 148.715 13.5115C149.781 14.2952 150.414 15.3751 150.616 16.7513H146.965C146.743 15.7001 145.908 15.1744 144.46 15.1744C143.736 15.1744 143.173 15.3082 142.77 15.5758C142.388 15.8434 142.197 16.1779 142.197 16.5793C142.197 16.9998 142.489 17.3343 143.072 17.5828C143.656 17.8312 144.43 18.0606 145.395 18.2709C146.441 18.5002 147.397 18.7582 148.262 19.0449C149.147 19.3125 149.851 19.7235 150.375 20.2778C150.897 20.8129 151.159 21.5869 151.159 22.6C151.179 23.4795 150.937 24.2723 150.435 24.9797C149.932 25.6867 149.208 26.2411 148.262 26.6428C147.317 27.044 146.2 27.2449 144.913 27.2449Z" fill="#81818B"/>
<path d="M159.559 27.2449C158.232 27.2449 157.065 27.044 156.059 26.6428C155.053 26.222 154.249 25.6487 153.645 24.9222C153.042 24.1962 152.679 23.3552 152.559 22.3996H156.451C156.572 22.9535 156.894 23.4317 157.417 23.833C157.96 24.2152 158.654 24.4064 159.499 24.4064C160.344 24.4064 160.958 24.244 161.34 23.9188C161.742 23.5941 161.943 23.2212 161.943 22.8008C161.943 22.189 161.662 21.778 161.098 21.5678C160.535 21.3386 159.751 21.1188 158.745 20.9085C158.101 20.7747 157.447 20.6123 156.783 20.4211C156.12 20.23 155.506 19.991 154.943 19.7044C154.4 19.3985 153.957 19.0163 153.615 18.5575C153.273 18.0797 153.102 17.4967 153.102 16.8086C153.102 15.5471 153.625 14.4864 154.671 13.6262C155.737 12.7661 157.226 12.3361 159.137 12.3361C160.907 12.3361 162.315 12.7279 163.361 13.5115C164.427 14.2952 165.061 15.3751 165.263 16.7513H161.611C161.39 15.7001 160.555 15.1744 159.107 15.1744C158.382 15.1744 157.819 15.3082 157.417 15.5758C157.035 15.8434 156.844 16.1779 156.844 16.5793C156.844 16.9998 157.135 17.3343 157.719 17.5828C158.302 17.8312 159.076 18.0606 160.042 18.2709C161.088 18.5002 162.044 18.7582 162.909 19.0449C163.794 19.3125 164.498 19.7235 165.021 20.2778C165.544 20.8129 165.806 21.5869 165.806 22.6C165.826 23.4795 165.584 24.2723 165.081 24.9797C164.578 25.6867 163.854 26.2411 162.909 26.6428C161.963 27.044 160.847 27.2449 159.559 27.2449Z" fill="#81818B"/>
</svg>
