<svg xmlns="http://www.w3.org/2000/svg" width="100" height="100" viewBox="0 0 100 100" version="1.1"><path d="M 40.923 17.923 C 39.315 19.531, 38 21.556, 38 22.423 C 38 23.728, 36.618 24, 30 24 L 22 24 22 51.326 C 22 78.372, 22.023 78.673, 24.250 80.759 C 28.168 84.430, 31.564 85, 49.500 85 C 67.436 85, 70.832 84.430, 74.750 80.759 C 76.977 78.673, 77 78.372, 77 51.326 L 77 24 69.500 24 C 63.337 24, 62 23.719, 62 22.423 C 62 21.556, 60.685 19.531, 59.077 17.923 C 56.479 15.326, 55.468 15, 50 15 C 44.532 15, 43.521 15.326, 40.923 17.923 M 42.039 19.189 C 38.144 23.369, 39.187 24, 50 24 C 60.813 24, 61.856 23.369, 57.961 19.189 C 56.307 17.413, 54.804 17, 50 17 C 45.196 17, 43.693 17.413, 42.039 19.189 M 24 28.500 C 24 29.690, 25.444 30, 31 30 C 36.556 30, 38 29.690, 38 28.500 C 38 27.310, 36.556 27, 31 27 C 25.444 27, 24 27.310, 24 28.500 M 39 28.500 C 39 29.742, 40.889 30, 50 30 C 59.111 30, 61 29.742, 61 28.500 C 61 27.258, 59.111 27, 50 27 C 40.889 27, 39 27.258, 39 28.500 M 62 28.500 C 62 29.333, 62.889 30, 64 30 C 65.100 30, 66 30.450, 66 31 C 66 31.550, 65.100 32, 64 32 C 61.672 32, 61.297 34.516, 63.500 35.362 C 64.325 35.678, 65 37.061, 65 38.433 C 65 41.433, 62.203 43.253, 59.724 41.866 C 57.604 40.679, 57.448 36.149, 59.500 35.362 C 60.325 35.045, 61 34.159, 61 33.393 C 61 32.287, 58.736 32, 50 32 C 41.264 32, 39 32.287, 39 33.393 C 39 34.159, 39.675 35.045, 40.500 35.362 C 42.552 36.149, 42.396 40.679, 40.276 41.866 C 37.797 43.253, 35 41.433, 35 38.433 C 35 37.061, 35.675 35.678, 36.500 35.362 C 37.325 35.045, 38 34.159, 38 33.393 C 38 32.335, 36.317 32, 31 32 L 24 32 24 54.077 L 24 76.154 26.923 79.077 L 29.846 82 49.367 82 C 68.561 82, 68.936 81.959, 71.694 79.587 L 74.500 77.174 74.705 52.087 L 74.911 27 68.455 27 C 63.384 27, 62 27.322, 62 28.500 M 67 31 C 67 31.550, 67.900 32, 69 32 C 70.100 32, 71 31.550, 71 31 C 71 30.450, 70.100 30, 69 30 C 67.900 30, 67 30.450, 67 31 M 36.788 37.546 C 35.808 38.526, 37.034 41, 38.500 41 C 40.114 41, 41.243 38.268, 39.956 37.473 C 39.430 37.148, 38.968 37.696, 38.930 38.691 C 38.862 40.430, 38.832 40.430, 38.148 38.698 C 37.757 37.707, 37.145 37.188, 36.788 37.546 M 59.788 37.546 C 58.808 38.526, 60.034 41, 61.500 41 C 63.114 41, 64.243 38.268, 62.956 37.473 C 62.430 37.148, 61.968 37.696, 61.930 38.691 C 61.862 40.430, 61.832 40.430, 61.148 38.698 C 60.757 37.707, 60.145 37.188, 59.788 37.546 M 27 72 C 27 72.636, 35 73, 49 73 C 63 73, 71 72.636, 71 72 C 71 71.364, 63 71, 49 71 C 35 71, 27 71.364, 27 72" stroke="none" fill="#fffcfc" fill-rule="evenodd"/><path d="" stroke="none" fill="#fcfcfc" fill-rule="evenodd"/></svg>